# xmcd
#
# Track frame offsets:
#	150
#	23755
#	25322
#	53503
#	67783
#	83472
#	101588
#	122660
#	152011
#	168665
#
# Disc length: 2654 seconds
# Revision: 0
# Processed by: cddbd v1.5.2PL0 Copyright (c) Steve Scherf et al.
# Submitted via: dBpowerAMP V12.0
#
DISCID=6b0a5c0a
DTITLE=The Blues Brotherrs Band - Lugano Jazz Festival 1990
DYEAR=1990
DGENRE=Blues
TTITLE0=Green Onions
TTITLE1=Can't Turn You Loose
TTITLE2=Peter Gunn
TTITLE3=Soulfinger
TTITLE4=You Don't Know
TTITLE5=She Caught the Katy
TTITLE6=Hold On, I'm Coming
TTITLE7=The Thrill is Gone
TTITLE8=In the Midnight Hour
TTITLE9=Sweet Home Chicago
EXTD=
EXTT0=
EXTT1=
EXTT2=
EXTT3=
EXTT4=
EXTT5=
EXTT6=
EXTT7=
EXTT8=
EXTT9=
PLAYORDER=
